<mxfile host="app.diagrams.net" modified="2021-09-12T17:18:16.371Z" agent="5.0 (Macintosh; Intel Mac OS X 10_15_7) AppleWebKit/537.36 (KHTML, like Gecko) Chrome/93.0.4577.63 Safari/537.36" etag="se-O4jDxeMr478kLeywB" version="15.1.4" type="github" pages="4">
  <diagram id="Gz0Cfk2Hy_LupTIM6uKj" name="Initial scheme">
    <mxGraphModel dx="901" dy="482" grid="1" gridSize="10" guides="1" tooltips="1" connect="1" arrows="1" fold="1" page="1" pageScale="1" pageWidth="1100" pageHeight="850" math="1" shadow="0">
      <root>
        <mxCell id="0" />
        <mxCell id="1" parent="0" />
        <mxCell id="o60pH_gIqdKsFOg4dMfI-9" value="&lt;i&gt;&lt;font style=&quot;font-size: 25px&quot;&gt;Core actors&lt;/font&gt;&lt;/i&gt;" style="rounded=0;whiteSpace=wrap;html=1;glass=0;fontFamily=Georgia;dashed=1;verticalAlign=top;flipH=1;" parent="1" vertex="1">
          <mxGeometry x="20" y="270" width="190" height="270" as="geometry" />
        </mxCell>
        <mxCell id="o60pH_gIqdKsFOg4dMfI-10" value="&lt;i&gt;&lt;font style=&quot;font-size: 25px&quot;&gt;User actions&lt;/font&gt;&lt;/i&gt;" style="rounded=0;whiteSpace=wrap;html=1;glass=0;fontFamily=Georgia;dashed=1;verticalAlign=top;flipH=1;" parent="1" vertex="1">
          <mxGeometry x="260" y="180" width="200" height="450" as="geometry" />
        </mxCell>
        <mxCell id="o60pH_gIqdKsFOg4dMfI-11" value="&lt;i&gt;&lt;font style=&quot;font-size: 25px&quot;&gt;Pool state&lt;/font&gt;&lt;/i&gt;" style="rounded=0;whiteSpace=wrap;html=1;glass=0;fontFamily=Georgia;dashed=1;verticalAlign=top;flipH=1;" parent="1" vertex="1">
          <mxGeometry x="560" y="180" width="500" height="450" as="geometry" />
        </mxCell>
        <mxCell id="o60pH_gIqdKsFOg4dMfI-30" style="edgeStyle=orthogonalEdgeStyle;rounded=0;orthogonalLoop=1;jettySize=auto;html=1;exitX=1;exitY=0.5;exitDx=0;exitDy=0;entryX=0;entryY=0.25;entryDx=0;entryDy=0;fontFamily=Georgia;" parent="1" source="o60pH_gIqdKsFOg4dMfI-12" target="o60pH_gIqdKsFOg4dMfI-16" edge="1">
          <mxGeometry relative="1" as="geometry" />
        </mxCell>
        <mxCell id="o60pH_gIqdKsFOg4dMfI-12" value="&lt;font style=&quot;font-size: 20px ; font-weight: normal&quot;&gt;Liquidity pool creator&lt;/font&gt;" style="rounded=0;whiteSpace=wrap;html=1;glass=0;fontFamily=Georgia;fontSize=20;fontStyle=1" parent="1" vertex="1">
          <mxGeometry x="40" y="320" width="140" height="60" as="geometry" />
        </mxCell>
        <mxCell id="o60pH_gIqdKsFOg4dMfI-31" style="edgeStyle=orthogonalEdgeStyle;rounded=0;orthogonalLoop=1;jettySize=auto;html=1;exitX=1;exitY=0.25;exitDx=0;exitDy=0;entryX=0;entryY=0.75;entryDx=0;entryDy=0;fontFamily=Georgia;" parent="1" source="o60pH_gIqdKsFOg4dMfI-13" target="o60pH_gIqdKsFOg4dMfI-16" edge="1">
          <mxGeometry relative="1" as="geometry">
            <Array as="points">
              <mxPoint x="240" y="405" />
              <mxPoint x="240" y="298" />
            </Array>
          </mxGeometry>
        </mxCell>
        <mxCell id="o60pH_gIqdKsFOg4dMfI-32" style="edgeStyle=orthogonalEdgeStyle;rounded=0;orthogonalLoop=1;jettySize=auto;html=1;exitX=1;exitY=0.5;exitDx=0;exitDy=0;entryX=0;entryY=0.5;entryDx=0;entryDy=0;fontFamily=Georgia;" parent="1" source="o60pH_gIqdKsFOg4dMfI-13" target="o60pH_gIqdKsFOg4dMfI-17" edge="1">
          <mxGeometry relative="1" as="geometry">
            <Array as="points">
              <mxPoint x="250" y="420" />
              <mxPoint x="250" y="375" />
            </Array>
          </mxGeometry>
        </mxCell>
        <mxCell id="o60pH_gIqdKsFOg4dMfI-33" style="edgeStyle=orthogonalEdgeStyle;rounded=0;orthogonalLoop=1;jettySize=auto;html=1;exitX=1;exitY=0.75;exitDx=0;exitDy=0;entryX=0;entryY=0.5;entryDx=0;entryDy=0;fontFamily=Georgia;" parent="1" source="o60pH_gIqdKsFOg4dMfI-13" target="o60pH_gIqdKsFOg4dMfI-18" edge="1">
          <mxGeometry relative="1" as="geometry" />
        </mxCell>
        <mxCell id="o60pH_gIqdKsFOg4dMfI-13" value="&lt;font style=&quot;font-size: 20px ; font-weight: normal&quot;&gt;Liquidity provider&lt;/font&gt;" style="rounded=0;whiteSpace=wrap;html=1;glass=0;fontFamily=Georgia;fontStyle=1" parent="1" vertex="1">
          <mxGeometry x="40" y="390" width="140" height="60" as="geometry" />
        </mxCell>
        <mxCell id="o60pH_gIqdKsFOg4dMfI-34" style="edgeStyle=orthogonalEdgeStyle;rounded=0;orthogonalLoop=1;jettySize=auto;html=1;exitX=1;exitY=0.5;exitDx=0;exitDy=0;entryX=0;entryY=0.5;entryDx=0;entryDy=0;fontFamily=Georgia;" parent="1" source="o60pH_gIqdKsFOg4dMfI-15" target="o60pH_gIqdKsFOg4dMfI-19" edge="1">
          <mxGeometry relative="1" as="geometry" />
        </mxCell>
        <mxCell id="o60pH_gIqdKsFOg4dMfI-15" value="&lt;font style=&quot;font-size: 20px ; font-weight: normal&quot;&gt;Exchange user&lt;/font&gt;" style="rounded=0;whiteSpace=wrap;html=1;glass=0;fontFamily=Georgia;fontStyle=1" parent="1" vertex="1">
          <mxGeometry x="40" y="460" width="140" height="60" as="geometry" />
        </mxCell>
        <mxCell id="o60pH_gIqdKsFOg4dMfI-39" value="+" style="edgeStyle=orthogonalEdgeStyle;rounded=0;orthogonalLoop=1;jettySize=auto;html=1;exitX=1;exitY=0.25;exitDx=0;exitDy=0;fontFamily=Georgia;fontStyle=1;fontSize=20;verticalAlign=middle;labelBackgroundColor=none;" parent="1" edge="1">
          <mxGeometry x="-0.5556" y="10" relative="1" as="geometry">
            <mxPoint x="426" y="244" as="sourcePoint" />
            <mxPoint x="581" y="269" as="targetPoint" />
            <Array as="points">
              <mxPoint x="426" y="269" />
            </Array>
            <mxPoint as="offset" />
          </mxGeometry>
        </mxCell>
        <mxCell id="o60pH_gIqdKsFOg4dMfI-16" value="&lt;font style=&quot;font-size: 20px&quot;&gt;Provide liquidity in all assets (mint LP shares)&lt;/font&gt;" style="rounded=0;whiteSpace=wrap;html=1;glass=0;fontFamily=Georgia;fontSize=18;" parent="1" vertex="1">
          <mxGeometry x="270" y="230" width="160" height="90" as="geometry" />
        </mxCell>
        <mxCell id="o60pH_gIqdKsFOg4dMfI-17" value="&lt;font style=&quot;font-weight: normal ; font-size: 20px&quot;&gt;Provide liquidity in one asset (mint LP shares)&lt;/font&gt;" style="rounded=0;whiteSpace=wrap;html=1;glass=0;fontFamily=Georgia;fontSize=18;fontStyle=1" parent="1" vertex="1">
          <mxGeometry x="270" y="330" width="160" height="90" as="geometry" />
        </mxCell>
        <mxCell id="o60pH_gIqdKsFOg4dMfI-46" style="edgeStyle=orthogonalEdgeStyle;rounded=0;orthogonalLoop=1;jettySize=auto;html=1;exitX=1;exitY=0.5;exitDx=0;exitDy=0;entryX=0;entryY=0.5;entryDx=0;entryDy=0;fontFamily=Georgia;fontSize=20;" parent="1" source="o60pH_gIqdKsFOg4dMfI-18" target="o60pH_gIqdKsFOg4dMfI-20" edge="1">
          <mxGeometry relative="1" as="geometry">
            <Array as="points">
              <mxPoint x="425" y="440" />
              <mxPoint x="470" y="440" />
              <mxPoint x="470" y="310" />
            </Array>
          </mxGeometry>
        </mxCell>
        <mxCell id="o60pH_gIqdKsFOg4dMfI-47" value="-" style="edgeLabel;html=1;align=center;verticalAlign=middle;resizable=0;points=[];fontSize=20;fontFamily=Georgia;labelBackgroundColor=none;" parent="o60pH_gIqdKsFOg4dMfI-46" vertex="1" connectable="0">
          <mxGeometry x="0.06" y="-1" relative="1" as="geometry">
            <mxPoint x="-33" y="93" as="offset" />
          </mxGeometry>
        </mxCell>
        <mxCell id="o60pH_gIqdKsFOg4dMfI-48" style="edgeStyle=orthogonalEdgeStyle;rounded=0;orthogonalLoop=1;jettySize=auto;html=1;exitX=1;exitY=0.75;exitDx=0;exitDy=0;entryX=0;entryY=0.5;entryDx=0;entryDy=0;fontFamily=Georgia;fontSize=20;" parent="1" source="o60pH_gIqdKsFOg4dMfI-18" target="o60pH_gIqdKsFOg4dMfI-26" edge="1">
          <mxGeometry relative="1" as="geometry" />
        </mxCell>
        <mxCell id="o60pH_gIqdKsFOg4dMfI-57" value="-" style="edgeLabel;html=1;align=center;verticalAlign=middle;resizable=0;points=[];fontSize=20;fontFamily=Georgia;fontStyle=0;labelBackgroundColor=none;" parent="o60pH_gIqdKsFOg4dMfI-48" vertex="1" connectable="0">
          <mxGeometry x="0.3" y="1" relative="1" as="geometry">
            <mxPoint x="-83.5" y="-30" as="offset" />
          </mxGeometry>
        </mxCell>
        <mxCell id="o60pH_gIqdKsFOg4dMfI-18" value="&lt;font style=&quot;font-weight: normal ; font-size: 20px&quot;&gt;Withdraw liquidity (redeem LP shares)&lt;/font&gt;" style="rounded=0;whiteSpace=wrap;html=1;glass=0;fontFamily=Georgia;fontSize=18;fontStyle=1" parent="1" vertex="1">
          <mxGeometry x="270" y="430" width="160" height="90" as="geometry" />
        </mxCell>
        <mxCell id="o60pH_gIqdKsFOg4dMfI-19" value="&lt;font style=&quot;font-size: 20px ; font-weight: normal&quot;&gt;Swap&lt;/font&gt;" style="rounded=0;whiteSpace=wrap;html=1;glass=0;fontFamily=Georgia;fontSize=20;fontStyle=1" parent="1" vertex="1">
          <mxGeometry x="270" y="530" width="160" height="90" as="geometry" />
        </mxCell>
        <mxCell id="o60pH_gIqdKsFOg4dMfI-20" value="&lt;font style=&quot;font-size: 22px&quot;&gt;Reserves&lt;/font&gt;" style="rounded=0;whiteSpace=wrap;html=1;glass=0;fontFamily=Georgia;align=left;verticalAlign=top;dashed=1;dashPattern=1 4;" parent="1" vertex="1">
          <mxGeometry x="580" y="220" width="450" height="180" as="geometry" />
        </mxCell>
        <mxCell id="o60pH_gIqdKsFOg4dMfI-22" value="&lt;font style=&quot;font-size: 19px ; font-weight: normal&quot;&gt;Token A&lt;br style=&quot;font-size: 19px&quot;&gt;$$r_1$$&lt;/font&gt;" style="rounded=0;whiteSpace=wrap;html=1;glass=0;fontFamily=Georgia;fontStyle=1;fontSize=19;" parent="1" vertex="1">
          <mxGeometry x="610" y="260" width="130" height="90" as="geometry" />
        </mxCell>
        <mxCell id="o60pH_gIqdKsFOg4dMfI-23" value="&lt;font style=&quot;font-size: 19px ; font-weight: normal&quot;&gt;Token B&lt;br style=&quot;font-size: 19px&quot;&gt;$$r_2$$&lt;/font&gt;" style="rounded=0;whiteSpace=wrap;html=1;glass=0;fontFamily=Georgia;fontStyle=1;fontSize=19;" parent="1" vertex="1">
          <mxGeometry x="750" y="260" width="130" height="90" as="geometry" />
        </mxCell>
        <mxCell id="o60pH_gIqdKsFOg4dMfI-24" value="&lt;font style=&quot;font-size: 19px ; font-weight: normal&quot;&gt;Token C&lt;br style=&quot;font-size: 19px&quot;&gt;$$r_3$$&lt;/font&gt;" style="rounded=0;whiteSpace=wrap;html=1;glass=0;fontFamily=Georgia;fontStyle=1;fontSize=19;" parent="1" vertex="1">
          <mxGeometry x="890" y="260" width="130" height="90" as="geometry" />
        </mxCell>
        <mxCell id="o60pH_gIqdKsFOg4dMfI-25" value="..." style="text;html=1;strokeColor=none;fillColor=none;align=center;verticalAlign=middle;whiteSpace=wrap;rounded=0;glass=0;dashed=1;dashPattern=1 4;fontFamily=Georgia;" parent="1" vertex="1">
          <mxGeometry x="795" y="360" width="40" height="20" as="geometry" />
        </mxCell>
        <mxCell id="o60pH_gIqdKsFOg4dMfI-26" value="&lt;font style=&quot;font-size: 23px ; font-weight: normal&quot;&gt;Liquidity shares&lt;/font&gt;" style="rounded=0;whiteSpace=wrap;html=1;glass=0;fontFamily=Georgia;fontStyle=1;fontSize=23;" parent="1" vertex="1">
          <mxGeometry x="580" y="460" width="450" height="110" as="geometry" />
        </mxCell>
        <mxCell id="o60pH_gIqdKsFOg4dMfI-41" style="edgeStyle=orthogonalEdgeStyle;rounded=0;orthogonalLoop=1;jettySize=auto;html=1;exitX=1;exitY=0.5;exitDx=0;exitDy=0;entryX=0.5;entryY=1;entryDx=0;entryDy=0;fontFamily=Georgia;fontSize=20;" parent="1" source="o60pH_gIqdKsFOg4dMfI-17" target="o60pH_gIqdKsFOg4dMfI-22" edge="1">
          <mxGeometry relative="1" as="geometry">
            <Array as="points">
              <mxPoint x="675" y="360" />
            </Array>
          </mxGeometry>
        </mxCell>
        <mxCell id="o60pH_gIqdKsFOg4dMfI-42" value="+" style="edgeLabel;html=1;align=right;verticalAlign=middle;resizable=0;points=[];fontSize=20;fontFamily=Georgia;fontStyle=1;labelBackgroundColor=none;" parent="o60pH_gIqdKsFOg4dMfI-41" vertex="1" connectable="0">
          <mxGeometry x="0.1043" y="-2" relative="1" as="geometry">
            <mxPoint x="-115" y="-14" as="offset" />
          </mxGeometry>
        </mxCell>
        <mxCell id="o60pH_gIqdKsFOg4dMfI-43" value="+" style="edgeStyle=orthogonalEdgeStyle;rounded=0;orthogonalLoop=1;jettySize=auto;html=1;exitX=1;exitY=0.75;exitDx=0;exitDy=0;fontFamily=Georgia;fontSize=20;fontStyle=1;labelBackgroundColor=none;" parent="1" edge="1">
          <mxGeometry x="-0.9543" y="-12" relative="1" as="geometry">
            <mxPoint x="430" y="397.5" as="sourcePoint" />
            <mxPoint x="805" y="460" as="targetPoint" />
            <Array as="points">
              <mxPoint x="500" y="398" />
              <mxPoint x="500" y="430" />
              <mxPoint x="805" y="430" />
            </Array>
            <mxPoint y="1" as="offset" />
          </mxGeometry>
        </mxCell>
        <mxCell id="o60pH_gIqdKsFOg4dMfI-52" style="edgeStyle=orthogonalEdgeStyle;rounded=0;orthogonalLoop=1;jettySize=auto;html=1;exitX=1;exitY=0.25;exitDx=0;exitDy=0;entryX=0.25;entryY=1;entryDx=0;entryDy=0;fontFamily=Georgia;fontSize=20;" parent="1" source="o60pH_gIqdKsFOg4dMfI-19" target="o60pH_gIqdKsFOg4dMfI-23" edge="1">
          <mxGeometry relative="1" as="geometry">
            <Array as="points">
              <mxPoint x="480" y="535" />
              <mxPoint x="480" y="410" />
              <mxPoint x="783" y="410" />
            </Array>
          </mxGeometry>
        </mxCell>
        <mxCell id="o60pH_gIqdKsFOg4dMfI-53" value="-" style="edgeLabel;html=1;align=center;verticalAlign=middle;resizable=0;points=[];fontSize=20;fontFamily=Georgia;labelBackgroundColor=none;" parent="o60pH_gIqdKsFOg4dMfI-52" vertex="1" connectable="0">
          <mxGeometry x="0.2814" y="-2" relative="1" as="geometry">
            <mxPoint x="-201.5" y="128" as="offset" />
          </mxGeometry>
        </mxCell>
        <mxCell id="o60pH_gIqdKsFOg4dMfI-54" style="edgeStyle=orthogonalEdgeStyle;rounded=0;orthogonalLoop=1;jettySize=auto;html=1;exitX=1;exitY=0.75;exitDx=0;exitDy=0;entryX=0.5;entryY=1;entryDx=0;entryDy=0;fontFamily=Georgia;fontSize=20;" parent="1" source="o60pH_gIqdKsFOg4dMfI-19" target="o60pH_gIqdKsFOg4dMfI-24" edge="1">
          <mxGeometry relative="1" as="geometry">
            <Array as="points">
              <mxPoint x="1050" y="598" />
              <mxPoint x="1050" y="370" />
              <mxPoint x="955" y="370" />
            </Array>
          </mxGeometry>
        </mxCell>
        <mxCell id="o60pH_gIqdKsFOg4dMfI-56" value="+" style="edgeLabel;html=1;align=center;verticalAlign=middle;resizable=0;points=[];fontSize=20;fontFamily=Georgia;fontStyle=1;labelBackgroundColor=none;" parent="o60pH_gIqdKsFOg4dMfI-54" vertex="1" connectable="0">
          <mxGeometry x="-0.09" y="1" relative="1" as="geometry">
            <mxPoint x="-425.5" y="-12" as="offset" />
          </mxGeometry>
        </mxCell>
      </root>
    </mxGraphModel>
  </diagram>
  <diagram name="simplified scheme" id="d_9agxrW86omBDYF9K5D">
    <mxGraphModel dx="1287" dy="689" grid="1" gridSize="10" guides="1" tooltips="1" connect="1" arrows="1" fold="1" page="1" pageScale="1" pageWidth="1100" pageHeight="850" math="1" shadow="0">
      <root>
        <mxCell id="f8-Kdo4v5M6tRJ11duCn-0" />
        <mxCell id="f8-Kdo4v5M6tRJ11duCn-1" parent="f8-Kdo4v5M6tRJ11duCn-0" />
        <mxCell id="f8-Kdo4v5M6tRJ11duCn-2" value="&lt;i&gt;&lt;font style=&quot;font-size: 25px&quot;&gt;Core actors&lt;/font&gt;&lt;/i&gt;" style="rounded=0;whiteSpace=wrap;html=1;glass=0;fontFamily=Georgia;dashed=1;verticalAlign=top;flipH=1;" parent="f8-Kdo4v5M6tRJ11duCn-1" vertex="1">
          <mxGeometry x="20" y="270" width="190" height="270" as="geometry" />
        </mxCell>
        <mxCell id="f8-Kdo4v5M6tRJ11duCn-3" value="&lt;i&gt;&lt;font style=&quot;font-size: 25px&quot;&gt;User actions&lt;/font&gt;&lt;/i&gt;" style="rounded=0;whiteSpace=wrap;html=1;glass=0;fontFamily=Georgia;dashed=1;verticalAlign=top;flipH=1;" parent="f8-Kdo4v5M6tRJ11duCn-1" vertex="1">
          <mxGeometry x="260" y="180" width="200" height="450" as="geometry" />
        </mxCell>
        <mxCell id="f8-Kdo4v5M6tRJ11duCn-4" value="&lt;i&gt;&lt;font style=&quot;font-size: 25px&quot;&gt;Pool state&lt;/font&gt;&lt;/i&gt;" style="rounded=0;whiteSpace=wrap;html=1;glass=0;fontFamily=Georgia;dashed=1;verticalAlign=top;flipH=1;" parent="f8-Kdo4v5M6tRJ11duCn-1" vertex="1">
          <mxGeometry x="560" y="180" width="500" height="450" as="geometry" />
        </mxCell>
        <mxCell id="f8-Kdo4v5M6tRJ11duCn-7" style="edgeStyle=orthogonalEdgeStyle;rounded=0;orthogonalLoop=1;jettySize=auto;html=1;exitX=1;exitY=0.25;exitDx=0;exitDy=0;entryX=0;entryY=0.75;entryDx=0;entryDy=0;fontFamily=Georgia;" parent="f8-Kdo4v5M6tRJ11duCn-1" source="f8-Kdo4v5M6tRJ11duCn-10" target="f8-Kdo4v5M6tRJ11duCn-14" edge="1">
          <mxGeometry relative="1" as="geometry">
            <Array as="points">
              <mxPoint x="240" y="335" />
              <mxPoint x="240" y="298" />
            </Array>
          </mxGeometry>
        </mxCell>
        <mxCell id="f8-Kdo4v5M6tRJ11duCn-9" style="edgeStyle=orthogonalEdgeStyle;rounded=0;orthogonalLoop=1;jettySize=auto;html=1;exitX=1;exitY=0.75;exitDx=0;exitDy=0;entryX=0;entryY=0.5;entryDx=0;entryDy=0;fontFamily=Georgia;" parent="f8-Kdo4v5M6tRJ11duCn-1" source="f8-Kdo4v5M6tRJ11duCn-10" target="f8-Kdo4v5M6tRJ11duCn-20" edge="1">
          <mxGeometry relative="1" as="geometry" />
        </mxCell>
        <mxCell id="f8-Kdo4v5M6tRJ11duCn-10" value="&lt;font style=&quot;font-size: 20px ; font-weight: normal&quot;&gt;Liquidity provider&lt;/font&gt;" style="rounded=0;whiteSpace=wrap;html=1;glass=0;fontFamily=Georgia;fontStyle=1" parent="f8-Kdo4v5M6tRJ11duCn-1" vertex="1">
          <mxGeometry x="40" y="320" width="140" height="60" as="geometry" />
        </mxCell>
        <mxCell id="f8-Kdo4v5M6tRJ11duCn-11" style="edgeStyle=orthogonalEdgeStyle;rounded=0;orthogonalLoop=1;jettySize=auto;html=1;exitX=1;exitY=0.5;exitDx=0;exitDy=0;entryX=0;entryY=0.5;entryDx=0;entryDy=0;fontFamily=Georgia;" parent="f8-Kdo4v5M6tRJ11duCn-1" source="f8-Kdo4v5M6tRJ11duCn-12" target="f8-Kdo4v5M6tRJ11duCn-21" edge="1">
          <mxGeometry relative="1" as="geometry" />
        </mxCell>
        <mxCell id="f8-Kdo4v5M6tRJ11duCn-12" value="&lt;font style=&quot;font-size: 20px ; font-weight: normal&quot;&gt;Exchange user&lt;/font&gt;" style="rounded=0;whiteSpace=wrap;html=1;glass=0;fontFamily=Georgia;fontStyle=1" parent="f8-Kdo4v5M6tRJ11duCn-1" vertex="1">
          <mxGeometry x="40" y="460" width="140" height="60" as="geometry" />
        </mxCell>
        <mxCell id="f8-Kdo4v5M6tRJ11duCn-13" value="+" style="edgeStyle=orthogonalEdgeStyle;rounded=0;orthogonalLoop=1;jettySize=auto;html=1;exitX=1;exitY=0.25;exitDx=0;exitDy=0;fontFamily=Georgia;fontStyle=1;fontSize=20;verticalAlign=middle;labelBackgroundColor=none;" parent="f8-Kdo4v5M6tRJ11duCn-1" edge="1">
          <mxGeometry x="-0.5556" y="10" relative="1" as="geometry">
            <mxPoint x="426" y="244" as="sourcePoint" />
            <mxPoint x="581" y="269" as="targetPoint" />
            <Array as="points">
              <mxPoint x="426" y="269" />
            </Array>
            <mxPoint as="offset" />
          </mxGeometry>
        </mxCell>
        <mxCell id="f8-Kdo4v5M6tRJ11duCn-14" value="&lt;font style=&quot;font-size: 20px&quot;&gt;Provide liquidity (mint LP shares)&lt;/font&gt;" style="rounded=0;whiteSpace=wrap;html=1;glass=0;fontFamily=Georgia;fontSize=18;" parent="f8-Kdo4v5M6tRJ11duCn-1" vertex="1">
          <mxGeometry x="270" y="230" width="160" height="90" as="geometry" />
        </mxCell>
        <mxCell id="f8-Kdo4v5M6tRJ11duCn-16" style="edgeStyle=orthogonalEdgeStyle;rounded=0;orthogonalLoop=1;jettySize=auto;html=1;exitX=1;exitY=0.5;exitDx=0;exitDy=0;fontFamily=Georgia;fontSize=20;" parent="f8-Kdo4v5M6tRJ11duCn-1" source="f8-Kdo4v5M6tRJ11duCn-20" target="f8-Kdo4v5M6tRJ11duCn-22" edge="1">
          <mxGeometry relative="1" as="geometry">
            <Array as="points">
              <mxPoint x="425" y="385" />
              <mxPoint x="425" y="330" />
            </Array>
            <mxPoint x="570" y="330" as="targetPoint" />
          </mxGeometry>
        </mxCell>
        <mxCell id="f8-Kdo4v5M6tRJ11duCn-17" value="-" style="edgeLabel;html=1;align=center;verticalAlign=middle;resizable=0;points=[];fontSize=20;fontFamily=Georgia;labelBackgroundColor=none;" parent="f8-Kdo4v5M6tRJ11duCn-16" vertex="1" connectable="0">
          <mxGeometry x="0.06" y="-1" relative="1" as="geometry">
            <mxPoint x="-39" y="9" as="offset" />
          </mxGeometry>
        </mxCell>
        <mxCell id="f8-Kdo4v5M6tRJ11duCn-18" style="edgeStyle=orthogonalEdgeStyle;rounded=0;orthogonalLoop=1;jettySize=auto;html=1;exitX=1;exitY=0.75;exitDx=0;exitDy=0;entryX=0;entryY=0.5;entryDx=0;entryDy=0;fontFamily=Georgia;fontSize=20;" parent="f8-Kdo4v5M6tRJ11duCn-1" source="f8-Kdo4v5M6tRJ11duCn-20" target="f8-Kdo4v5M6tRJ11duCn-27" edge="1">
          <mxGeometry relative="1" as="geometry">
            <Array as="points">
              <mxPoint x="490" y="408" />
              <mxPoint x="490" y="515" />
            </Array>
          </mxGeometry>
        </mxCell>
        <mxCell id="f8-Kdo4v5M6tRJ11duCn-19" value="-" style="edgeLabel;html=1;align=center;verticalAlign=middle;resizable=0;points=[];fontSize=20;fontFamily=Georgia;fontStyle=0;labelBackgroundColor=none;" parent="f8-Kdo4v5M6tRJ11duCn-18" vertex="1" connectable="0">
          <mxGeometry x="0.3" y="1" relative="1" as="geometry">
            <mxPoint x="-50" y="-89" as="offset" />
          </mxGeometry>
        </mxCell>
        <mxCell id="f8-Kdo4v5M6tRJ11duCn-20" value="&lt;font style=&quot;font-weight: normal ; font-size: 20px&quot;&gt;Withdraw liquidity (redeem LP shares)&lt;/font&gt;" style="rounded=0;whiteSpace=wrap;html=1;glass=0;fontFamily=Georgia;fontSize=18;fontStyle=1" parent="f8-Kdo4v5M6tRJ11duCn-1" vertex="1">
          <mxGeometry x="270" y="340" width="160" height="90" as="geometry" />
        </mxCell>
        <mxCell id="f8-Kdo4v5M6tRJ11duCn-21" value="&lt;font style=&quot;font-size: 20px ; font-weight: normal&quot;&gt;Swap&lt;/font&gt;" style="rounded=0;whiteSpace=wrap;html=1;glass=0;fontFamily=Georgia;fontSize=20;fontStyle=1" parent="f8-Kdo4v5M6tRJ11duCn-1" vertex="1">
          <mxGeometry x="270" y="530" width="160" height="90" as="geometry" />
        </mxCell>
        <mxCell id="f8-Kdo4v5M6tRJ11duCn-22" value="&lt;font style=&quot;font-size: 22px&quot;&gt;Reserves&lt;/font&gt;" style="rounded=0;whiteSpace=wrap;html=1;glass=0;fontFamily=Georgia;align=left;verticalAlign=top;dashed=1;dashPattern=1 4;" parent="f8-Kdo4v5M6tRJ11duCn-1" vertex="1">
          <mxGeometry x="580" y="220" width="450" height="180" as="geometry" />
        </mxCell>
        <mxCell id="f8-Kdo4v5M6tRJ11duCn-23" value="&lt;font style=&quot;font-size: 19px ; font-weight: normal&quot;&gt;Token A&lt;br style=&quot;font-size: 19px&quot;&gt;$$r_1$$&lt;/font&gt;" style="rounded=0;whiteSpace=wrap;html=1;glass=0;fontFamily=Georgia;fontStyle=1;fontSize=19;" parent="f8-Kdo4v5M6tRJ11duCn-1" vertex="1">
          <mxGeometry x="610" y="260" width="130" height="90" as="geometry" />
        </mxCell>
        <mxCell id="f8-Kdo4v5M6tRJ11duCn-24" value="&lt;font style=&quot;font-size: 19px ; font-weight: normal&quot;&gt;Token B&lt;br style=&quot;font-size: 19px&quot;&gt;$$r_2$$&lt;/font&gt;" style="rounded=0;whiteSpace=wrap;html=1;glass=0;fontFamily=Georgia;fontStyle=1;fontSize=19;" parent="f8-Kdo4v5M6tRJ11duCn-1" vertex="1">
          <mxGeometry x="750" y="260" width="130" height="90" as="geometry" />
        </mxCell>
        <mxCell id="f8-Kdo4v5M6tRJ11duCn-25" value="&lt;font style=&quot;font-size: 19px ; font-weight: normal&quot;&gt;Token C&lt;br style=&quot;font-size: 19px&quot;&gt;$$r_3$$&lt;/font&gt;" style="rounded=0;whiteSpace=wrap;html=1;glass=0;fontFamily=Georgia;fontStyle=1;fontSize=19;" parent="f8-Kdo4v5M6tRJ11duCn-1" vertex="1">
          <mxGeometry x="890" y="260" width="130" height="90" as="geometry" />
        </mxCell>
        <mxCell id="f8-Kdo4v5M6tRJ11duCn-26" value="..." style="text;html=1;strokeColor=none;fillColor=none;align=center;verticalAlign=middle;whiteSpace=wrap;rounded=0;glass=0;dashed=1;dashPattern=1 4;fontFamily=Georgia;" parent="f8-Kdo4v5M6tRJ11duCn-1" vertex="1">
          <mxGeometry x="795" y="360" width="40" height="20" as="geometry" />
        </mxCell>
        <mxCell id="f8-Kdo4v5M6tRJ11duCn-27" value="&lt;font style=&quot;font-size: 23px ; font-weight: normal&quot;&gt;Liquidity shares&lt;/font&gt;" style="rounded=0;whiteSpace=wrap;html=1;glass=0;fontFamily=Georgia;fontStyle=1;fontSize=23;" parent="f8-Kdo4v5M6tRJ11duCn-1" vertex="1">
          <mxGeometry x="580" y="460" width="450" height="110" as="geometry" />
        </mxCell>
        <mxCell id="f8-Kdo4v5M6tRJ11duCn-31" style="edgeStyle=orthogonalEdgeStyle;rounded=0;orthogonalLoop=1;jettySize=auto;html=1;exitX=1;exitY=0.25;exitDx=0;exitDy=0;entryX=0.25;entryY=1;entryDx=0;entryDy=0;fontFamily=Georgia;fontSize=20;" parent="f8-Kdo4v5M6tRJ11duCn-1" source="f8-Kdo4v5M6tRJ11duCn-21" target="f8-Kdo4v5M6tRJ11duCn-24" edge="1">
          <mxGeometry relative="1" as="geometry">
            <Array as="points">
              <mxPoint x="430" y="535" />
              <mxPoint x="540" y="535" />
              <mxPoint x="540" y="410" />
              <mxPoint x="783" y="410" />
            </Array>
          </mxGeometry>
        </mxCell>
        <mxCell id="f8-Kdo4v5M6tRJ11duCn-32" value="-" style="edgeLabel;html=1;align=center;verticalAlign=middle;resizable=0;points=[];fontSize=20;fontFamily=Georgia;labelBackgroundColor=none;" parent="f8-Kdo4v5M6tRJ11duCn-31" vertex="1" connectable="0">
          <mxGeometry x="0.2814" y="-2" relative="1" as="geometry">
            <mxPoint x="-201.5" y="128" as="offset" />
          </mxGeometry>
        </mxCell>
        <mxCell id="f8-Kdo4v5M6tRJ11duCn-33" style="edgeStyle=orthogonalEdgeStyle;rounded=0;orthogonalLoop=1;jettySize=auto;html=1;exitX=1;exitY=0.75;exitDx=0;exitDy=0;entryX=0.5;entryY=1;entryDx=0;entryDy=0;fontFamily=Georgia;fontSize=20;" parent="f8-Kdo4v5M6tRJ11duCn-1" source="f8-Kdo4v5M6tRJ11duCn-21" target="f8-Kdo4v5M6tRJ11duCn-25" edge="1">
          <mxGeometry relative="1" as="geometry">
            <Array as="points">
              <mxPoint x="1050" y="598" />
              <mxPoint x="1050" y="370" />
              <mxPoint x="955" y="370" />
            </Array>
          </mxGeometry>
        </mxCell>
        <mxCell id="f8-Kdo4v5M6tRJ11duCn-34" value="+" style="edgeLabel;html=1;align=center;verticalAlign=middle;resizable=0;points=[];fontSize=20;fontFamily=Georgia;fontStyle=1;labelBackgroundColor=none;" parent="f8-Kdo4v5M6tRJ11duCn-33" vertex="1" connectable="0">
          <mxGeometry x="-0.09" y="1" relative="1" as="geometry">
            <mxPoint x="-425.5" y="-12" as="offset" />
          </mxGeometry>
        </mxCell>
        <mxCell id="f8-Kdo4v5M6tRJ11duCn-35" style="edgeStyle=orthogonalEdgeStyle;rounded=0;orthogonalLoop=1;jettySize=auto;html=1;exitX=1;exitY=0.75;exitDx=0;exitDy=0;entryX=0;entryY=0.25;entryDx=0;entryDy=0;fontFamily=Georgia;fontSize=20;" parent="f8-Kdo4v5M6tRJ11duCn-1" source="f8-Kdo4v5M6tRJ11duCn-14" target="f8-Kdo4v5M6tRJ11duCn-27" edge="1">
          <mxGeometry relative="1" as="geometry">
            <mxPoint x="440" y="417.5" as="sourcePoint" />
            <mxPoint x="590" y="525" as="targetPoint" />
          </mxGeometry>
        </mxCell>
        <mxCell id="f8-Kdo4v5M6tRJ11duCn-37" value="&lt;b&gt;+&lt;/b&gt;" style="edgeLabel;html=1;align=center;verticalAlign=middle;resizable=0;points=[];fontSize=20;fontFamily=Georgia;labelBackgroundColor=none;" parent="f8-Kdo4v5M6tRJ11duCn-1" vertex="1" connectable="0">
          <mxGeometry x="456" y="310" as="geometry">
            <mxPoint x="-15" y="-22" as="offset" />
          </mxGeometry>
        </mxCell>
      </root>
    </mxGraphModel>
  </diagram>
  <diagram id="J_Vn4R8fVz-9VrVz1cEO" name="taxonomy">
    <mxGraphModel dx="901" dy="1651" grid="1" gridSize="10" guides="1" tooltips="1" connect="1" arrows="1" fold="1" page="1" pageScale="1" pageWidth="827" pageHeight="1169" math="0" shadow="0">
      <root>
        <mxCell id="2uartM1_8DbLwZGfnhCD-0" />
        <mxCell id="2uartM1_8DbLwZGfnhCD-1" parent="2uartM1_8DbLwZGfnhCD-0" />
        <mxCell id="JIuaePItAtqz8TFXkj8O-0" value="Decentralized Finance" style="ellipse;whiteSpace=wrap;html=1;" vertex="1" parent="2uartM1_8DbLwZGfnhCD-1">
          <mxGeometry x="60" y="70" width="210" height="80" as="geometry" />
        </mxCell>
        <mxCell id="JIuaePItAtqz8TFXkj8O-1" value="Traditional Finance" style="ellipse;whiteSpace=wrap;html=1;" vertex="1" parent="2uartM1_8DbLwZGfnhCD-1">
          <mxGeometry x="330" y="70" width="210" height="80" as="geometry" />
        </mxCell>
        <mxCell id="JIuaePItAtqz8TFXkj8O-2" value="Automated&amp;nbsp;" style="ellipse;whiteSpace=wrap;html=1;" vertex="1" parent="2uartM1_8DbLwZGfnhCD-1">
          <mxGeometry x="130" y="-10" width="210" height="80" as="geometry" />
        </mxCell>
        <mxCell id="JIuaePItAtqz8TFXkj8O-3" value="" style="swimlane;startSize=20;horizontal=1;childLayout=treeLayout;horizontalTree=0;resizable=0;containerType=tree;" vertex="1" parent="2uartM1_8DbLwZGfnhCD-1">
          <mxGeometry x="580" y="160" width="280" height="190" as="geometry" />
        </mxCell>
        <mxCell id="JIuaePItAtqz8TFXkj8O-4" value="Root" style="whiteSpace=wrap;html=1;" vertex="1" parent="JIuaePItAtqz8TFXkj8O-3">
          <mxGeometry x="90" y="40" width="100" height="40" as="geometry" />
        </mxCell>
        <mxCell id="JIuaePItAtqz8TFXkj8O-5" value="Child 1" style="whiteSpace=wrap;html=1;" vertex="1" parent="JIuaePItAtqz8TFXkj8O-3">
          <mxGeometry x="160" y="130" width="100" height="40" as="geometry" />
        </mxCell>
        <mxCell id="JIuaePItAtqz8TFXkj8O-6" value="" style="edgeStyle=elbowEdgeStyle;elbow=vertical;html=1;rounded=0;" edge="1" parent="JIuaePItAtqz8TFXkj8O-3" source="JIuaePItAtqz8TFXkj8O-4" target="JIuaePItAtqz8TFXkj8O-5">
          <mxGeometry relative="1" as="geometry" />
        </mxCell>
        <mxCell id="JIuaePItAtqz8TFXkj8O-12" value="Text" style="edgeLabel;html=1;align=center;verticalAlign=middle;resizable=0;points=[];" vertex="1" connectable="0" parent="JIuaePItAtqz8TFXkj8O-6">
          <mxGeometry x="-0.25" y="4" relative="1" as="geometry">
            <mxPoint as="offset" />
          </mxGeometry>
        </mxCell>
        <mxCell id="JIuaePItAtqz8TFXkj8O-7" value="Child 2" style="whiteSpace=wrap;html=1;" vertex="1" parent="JIuaePItAtqz8TFXkj8O-3">
          <mxGeometry x="20" y="130" width="100" height="40" as="geometry" />
        </mxCell>
        <mxCell id="JIuaePItAtqz8TFXkj8O-8" value="" style="edgeStyle=elbowEdgeStyle;elbow=vertical;html=1;rounded=0;" edge="1" parent="JIuaePItAtqz8TFXkj8O-3" source="JIuaePItAtqz8TFXkj8O-4" target="JIuaePItAtqz8TFXkj8O-7">
          <mxGeometry relative="1" as="geometry" />
        </mxCell>
        <mxCell id="JIuaePItAtqz8TFXkj8O-18" value="Text" style="edgeLabel;html=1;align=center;verticalAlign=middle;resizable=0;points=[];" vertex="1" connectable="0" parent="JIuaePItAtqz8TFXkj8O-8">
          <mxGeometry x="0.1833" y="1" relative="1" as="geometry">
            <mxPoint as="offset" />
          </mxGeometry>
        </mxCell>
        <mxCell id="JIuaePItAtqz8TFXkj8O-13" style="edgeStyle=orthogonalEdgeStyle;rounded=0;orthogonalLoop=1;jettySize=auto;html=1;exitX=0.5;exitY=1;exitDx=0;exitDy=0;" edge="1" parent="2uartM1_8DbLwZGfnhCD-1">
          <mxGeometry relative="1" as="geometry">
            <mxPoint x="100" y="430" as="targetPoint" />
            <mxPoint x="50" y="310" as="sourcePoint" />
            <Array as="points">
              <mxPoint x="50" y="430" />
            </Array>
          </mxGeometry>
        </mxCell>
        <mxCell id="JIuaePItAtqz8TFXkj8O-9" value="&lt;meta charset=&quot;utf-8&quot;&gt;&lt;span style=&quot;color: rgb(0, 0, 0); font-family: helvetica; font-size: 12px; font-style: normal; font-weight: 400; letter-spacing: normal; text-align: center; text-indent: 0px; text-transform: none; word-spacing: 0px; background-color: rgb(248, 249, 250); display: inline; float: none;&quot;&gt;Decentralized Finance&lt;/span&gt;" style="text;whiteSpace=wrap;html=1;" vertex="1" parent="2uartM1_8DbLwZGfnhCD-1">
          <mxGeometry x="20" y="280" width="140" height="30" as="geometry" />
        </mxCell>
        <mxCell id="JIuaePItAtqz8TFXkj8O-14" style="edgeStyle=orthogonalEdgeStyle;rounded=0;orthogonalLoop=1;jettySize=auto;html=1;" edge="1" parent="2uartM1_8DbLwZGfnhCD-1">
          <mxGeometry relative="1" as="geometry">
            <mxPoint x="530" y="420" as="targetPoint" />
            <mxPoint x="530" y="320" as="sourcePoint" />
          </mxGeometry>
        </mxCell>
        <mxCell id="JIuaePItAtqz8TFXkj8O-10" value="&lt;meta charset=&quot;utf-8&quot;&gt;&lt;span style=&quot;color: rgb(0, 0, 0); font-family: helvetica; font-size: 12px; font-style: normal; font-weight: 400; letter-spacing: normal; text-align: center; text-indent: 0px; text-transform: none; word-spacing: 0px; background-color: rgb(248, 249, 250); display: inline; float: none;&quot;&gt;Traditional Finance&lt;/span&gt;" style="text;whiteSpace=wrap;html=1;" vertex="1" parent="2uartM1_8DbLwZGfnhCD-1">
          <mxGeometry x="460" y="280" width="130" height="30" as="geometry" />
        </mxCell>
        <mxCell id="JIuaePItAtqz8TFXkj8O-17" value="Exchanges" style="text;html=1;align=center;verticalAlign=middle;resizable=0;points=[];autosize=1;strokeColor=none;fillColor=none;" vertex="1" parent="2uartM1_8DbLwZGfnhCD-1">
          <mxGeometry x="235" y="390" width="70" height="20" as="geometry" />
        </mxCell>
        <mxCell id="JIuaePItAtqz8TFXkj8O-19" value="Decentralized Exchanges" style="text;html=1;align=center;verticalAlign=middle;resizable=0;points=[];autosize=1;strokeColor=none;fillColor=none;" vertex="1" parent="2uartM1_8DbLwZGfnhCD-1">
          <mxGeometry x="100" y="420" width="150" height="20" as="geometry" />
        </mxCell>
        <mxCell id="JIuaePItAtqz8TFXkj8O-20" value="Centralized Exchanges" style="text;html=1;align=center;verticalAlign=middle;resizable=0;points=[];autosize=1;strokeColor=none;fillColor=none;" vertex="1" parent="2uartM1_8DbLwZGfnhCD-1">
          <mxGeometry x="340" y="420" width="140" height="20" as="geometry" />
        </mxCell>
        <mxCell id="JIuaePItAtqz8TFXkj8O-21" value="Uniswap" style="text;html=1;align=center;verticalAlign=middle;resizable=0;points=[];autosize=1;strokeColor=none;fillColor=none;" vertex="1" parent="2uartM1_8DbLwZGfnhCD-1">
          <mxGeometry x="175" y="510" width="60" height="20" as="geometry" />
        </mxCell>
        <mxCell id="JIuaePItAtqz8TFXkj8O-22" value="Constant function" style="text;html=1;align=center;verticalAlign=middle;resizable=0;points=[];autosize=1;strokeColor=none;fillColor=none;" vertex="1" parent="2uartM1_8DbLwZGfnhCD-1">
          <mxGeometry x="140" y="460" width="110" height="20" as="geometry" />
        </mxCell>
        <mxCell id="JIuaePItAtqz8TFXkj8O-23" value="Constant sum" style="text;html=1;align=center;verticalAlign=middle;resizable=0;points=[];autosize=1;strokeColor=none;fillColor=none;" vertex="1" parent="2uartM1_8DbLwZGfnhCD-1">
          <mxGeometry x="75" y="490" width="90" height="20" as="geometry" />
        </mxCell>
        <mxCell id="JIuaePItAtqz8TFXkj8O-24" value="Constant product" style="text;html=1;align=center;verticalAlign=middle;resizable=0;points=[];autosize=1;strokeColor=none;fillColor=none;" vertex="1" parent="2uartM1_8DbLwZGfnhCD-1">
          <mxGeometry x="220" y="490" width="110" height="20" as="geometry" />
        </mxCell>
      </root>
    </mxGraphModel>
  </diagram>
  <diagram id="GEQpAldpkpGD7Rz18Gax" name="security">
    <mxGraphModel dx="1060" dy="567" grid="1" gridSize="10" guides="1" tooltips="1" connect="1" arrows="1" fold="1" page="1" pageScale="1" pageWidth="827" pageHeight="1169" math="0" shadow="0">
      <root>
        <mxCell id="EXGlup8Ojjp6KNx8XwXa-0" />
        <mxCell id="EXGlup8Ojjp6KNx8XwXa-1" parent="EXGlup8Ojjp6KNx8XwXa-0" />
        <mxCell id="EXGlup8Ojjp6KNx8XwXa-2" value="" style="edgeStyle=none;rounded=0;jumpStyle=none;html=1;shadow=0;labelBackgroundColor=none;startArrow=none;startFill=0;endArrow=classic;endFill=1;jettySize=auto;orthogonalLoop=1;strokeWidth=3;fontFamily=Helvetica;fontSize=16;fontColor=#23445D;spacing=5;" edge="1" parent="EXGlup8Ojjp6KNx8XwXa-1" source="EXGlup8Ojjp6KNx8XwXa-5" target="EXGlup8Ojjp6KNx8XwXa-20">
          <mxGeometry relative="1" as="geometry" />
        </mxCell>
        <mxCell id="EXGlup8Ojjp6KNx8XwXa-3" value="" style="edgeStyle=none;rounded=0;jumpStyle=none;html=1;shadow=0;labelBackgroundColor=none;startArrow=none;startFill=0;endArrow=classic;endFill=1;jettySize=auto;orthogonalLoop=1;strokeWidth=3;fontFamily=Helvetica;fontSize=16;fontColor=#23445D;spacing=5;" edge="1" parent="EXGlup8Ojjp6KNx8XwXa-1" source="EXGlup8Ojjp6KNx8XwXa-5" target="EXGlup8Ojjp6KNx8XwXa-16">
          <mxGeometry relative="1" as="geometry" />
        </mxCell>
        <mxCell id="EXGlup8Ojjp6KNx8XwXa-4" value="" style="edgeStyle=none;rounded=0;jumpStyle=none;html=1;shadow=0;labelBackgroundColor=none;startArrow=none;startFill=0;endArrow=classic;endFill=1;jettySize=auto;orthogonalLoop=1;strokeWidth=3;fontFamily=Helvetica;fontSize=16;fontColor=#23445D;spacing=5;" edge="1" parent="EXGlup8Ojjp6KNx8XwXa-1" source="EXGlup8Ojjp6KNx8XwXa-5" target="EXGlup8Ojjp6KNx8XwXa-9">
          <mxGeometry relative="1" as="geometry" />
        </mxCell>
        <mxCell id="EXGlup8Ojjp6KNx8XwXa-5" value="DeFi Security" style="rounded=1;whiteSpace=wrap;html=1;shadow=0;labelBackgroundColor=none;strokeWidth=3;fontFamily=Helvetica;fontSize=16;align=center;fontStyle=1;spacing=5;arcSize=7;perimeterSpacing=2;strokeColor=#36393d;fillColor=#B3B3B3;" vertex="1" parent="EXGlup8Ojjp6KNx8XwXa-1">
          <mxGeometry x="501" y="146" width="150" height="70" as="geometry" />
        </mxCell>
        <mxCell id="EXGlup8Ojjp6KNx8XwXa-6" value="" style="edgeStyle=none;rounded=1;jumpStyle=none;html=1;shadow=0;labelBackgroundColor=none;startArrow=none;startFill=0;jettySize=auto;orthogonalLoop=1;strokeWidth=3;fontFamily=Helvetica;fontSize=16;fontColor=#FFFFFF;spacing=5;fontStyle=1;" edge="1" parent="EXGlup8Ojjp6KNx8XwXa-1" source="EXGlup8Ojjp6KNx8XwXa-9" target="EXGlup8Ojjp6KNx8XwXa-12">
          <mxGeometry relative="1" as="geometry" />
        </mxCell>
        <mxCell id="EXGlup8Ojjp6KNx8XwXa-7" value="" style="edgeStyle=none;rounded=1;jumpStyle=none;html=1;shadow=0;labelBackgroundColor=none;startArrow=none;startFill=0;jettySize=auto;orthogonalLoop=1;strokeWidth=3;fontFamily=Helvetica;fontSize=16;fontColor=#FFFFFF;spacing=5;fontStyle=1;" edge="1" parent="EXGlup8Ojjp6KNx8XwXa-1" source="EXGlup8Ojjp6KNx8XwXa-9" target="EXGlup8Ojjp6KNx8XwXa-11">
          <mxGeometry relative="1" as="geometry" />
        </mxCell>
        <mxCell id="EXGlup8Ojjp6KNx8XwXa-8" value="" style="edgeStyle=none;rounded=1;jumpStyle=none;html=1;shadow=0;labelBackgroundColor=none;startArrow=none;startFill=0;jettySize=auto;orthogonalLoop=1;strokeWidth=3;fontFamily=Helvetica;fontSize=16;fontColor=#FFFFFF;spacing=5;fontStyle=1;" edge="1" parent="EXGlup8Ojjp6KNx8XwXa-1" source="EXGlup8Ojjp6KNx8XwXa-9">
          <mxGeometry relative="1" as="geometry">
            <mxPoint x="270" y="258" as="targetPoint" />
          </mxGeometry>
        </mxCell>
        <mxCell id="EXGlup8Ojjp6KNx8XwXa-9" value="Economical Security" style="rounded=1;whiteSpace=wrap;html=1;shadow=0;labelBackgroundColor=none;strokeWidth=3;fontFamily=Helvetica;fontSize=16;align=center;spacing=5;fontStyle=1;arcSize=7;perimeterSpacing=2;fillColor=#f5f5f5;strokeColor=#666666;fontColor=#333333;" vertex="1" parent="EXGlup8Ojjp6KNx8XwXa-1">
          <mxGeometry x="300" y="151" width="150" height="60" as="geometry" />
        </mxCell>
        <mxCell id="EXGlup8Ojjp6KNx8XwXa-10" value="Market &amp;amp; Oracle Manipulation" style="rounded=1;whiteSpace=wrap;html=1;shadow=0;labelBackgroundColor=none;strokeWidth=3;fontFamily=Helvetica;fontSize=16;align=center;spacing=5;fontStyle=0;arcSize=7;perimeterSpacing=2;" vertex="1" parent="EXGlup8Ojjp6KNx8XwXa-1">
          <mxGeometry x="120" y="260" width="150" height="60" as="geometry" />
        </mxCell>
        <mxCell id="EXGlup8Ojjp6KNx8XwXa-11" value="Miner Extractable Value" style="rounded=1;whiteSpace=wrap;html=1;shadow=0;labelBackgroundColor=none;strokeWidth=3;fontFamily=Helvetica;fontSize=16;align=center;spacing=5;fontStyle=0;arcSize=7;perimeterSpacing=2;" vertex="1" parent="EXGlup8Ojjp6KNx8XwXa-1">
          <mxGeometry x="120" y="190" width="150" height="60" as="geometry" />
        </mxCell>
        <mxCell id="EXGlup8Ojjp6KNx8XwXa-12" value="Rug Pulls" style="rounded=1;whiteSpace=wrap;html=1;shadow=0;labelBackgroundColor=none;strokeWidth=3;fontFamily=Helvetica;fontSize=16;align=center;spacing=5;fontStyle=0;arcSize=7;perimeterSpacing=2;" vertex="1" parent="EXGlup8Ojjp6KNx8XwXa-1">
          <mxGeometry x="120" y="120" width="150" height="60" as="geometry" />
        </mxCell>
        <mxCell id="EXGlup8Ojjp6KNx8XwXa-13" value="" style="edgeStyle=none;rounded=0;jumpStyle=none;html=1;shadow=0;labelBackgroundColor=none;startArrow=none;startFill=0;endArrow=classic;endFill=1;jettySize=auto;orthogonalLoop=1;strokeWidth=3;fontFamily=Helvetica;fontSize=16;fontColor=#FFFFFF;spacing=5;" edge="1" parent="EXGlup8Ojjp6KNx8XwXa-1" source="EXGlup8Ojjp6KNx8XwXa-16" target="EXGlup8Ojjp6KNx8XwXa-19">
          <mxGeometry relative="1" as="geometry" />
        </mxCell>
        <mxCell id="EXGlup8Ojjp6KNx8XwXa-14" value="" style="edgeStyle=none;rounded=0;jumpStyle=none;html=1;shadow=0;labelBackgroundColor=none;startArrow=none;startFill=0;endArrow=classic;endFill=1;jettySize=auto;orthogonalLoop=1;strokeWidth=3;fontFamily=Helvetica;fontSize=16;fontColor=#FFFFFF;spacing=5;" edge="1" parent="EXGlup8Ojjp6KNx8XwXa-1" source="EXGlup8Ojjp6KNx8XwXa-16" target="EXGlup8Ojjp6KNx8XwXa-18">
          <mxGeometry relative="1" as="geometry" />
        </mxCell>
        <mxCell id="EXGlup8Ojjp6KNx8XwXa-15" value="" style="edgeStyle=none;rounded=0;jumpStyle=none;html=1;shadow=0;labelBackgroundColor=none;startArrow=none;startFill=0;endArrow=classic;endFill=1;jettySize=auto;orthogonalLoop=1;strokeWidth=3;fontFamily=Helvetica;fontSize=16;fontColor=#FFFFFF;spacing=5;" edge="1" parent="EXGlup8Ojjp6KNx8XwXa-1" source="EXGlup8Ojjp6KNx8XwXa-16" target="EXGlup8Ojjp6KNx8XwXa-17">
          <mxGeometry relative="1" as="geometry" />
        </mxCell>
        <mxCell id="EXGlup8Ojjp6KNx8XwXa-16" value="Technical Security" style="rounded=1;whiteSpace=wrap;html=1;shadow=0;labelBackgroundColor=none;strokeWidth=3;fontFamily=Helvetica;fontSize=16;align=center;spacing=5;fontStyle=1;arcSize=7;perimeterSpacing=2;fillColor=#f5f5f5;strokeColor=#666666;fontColor=#333333;" vertex="1" parent="EXGlup8Ojjp6KNx8XwXa-1">
          <mxGeometry x="501" y="260" width="150" height="60" as="geometry" />
        </mxCell>
        <mxCell id="EXGlup8Ojjp6KNx8XwXa-17" value="Front-running" style="rounded=1;whiteSpace=wrap;html=1;shadow=0;labelBackgroundColor=none;strokeWidth=3;fontFamily=Helvetica;fontSize=16;align=center;spacing=5;arcSize=7;perimeterSpacing=2;" vertex="1" parent="EXGlup8Ojjp6KNx8XwXa-1">
          <mxGeometry x="660" y="350" width="150" height="60" as="geometry" />
        </mxCell>
        <mxCell id="EXGlup8Ojjp6KNx8XwXa-18" value="Single Transaction Attacks" style="rounded=1;whiteSpace=wrap;html=1;shadow=0;labelBackgroundColor=none;strokeWidth=3;fontFamily=Helvetica;fontSize=16;align=center;spacing=5;arcSize=7;perimeterSpacing=2;" vertex="1" parent="EXGlup8Ojjp6KNx8XwXa-1">
          <mxGeometry x="501" y="350" width="150" height="60" as="geometry" />
        </mxCell>
        <mxCell id="EXGlup8Ojjp6KNx8XwXa-19" value="Smart contract vulnerabilities" style="rounded=1;whiteSpace=wrap;html=1;shadow=0;labelBackgroundColor=none;strokeWidth=3;fontFamily=Helvetica;fontSize=16;align=center;spacing=5;arcSize=7;perimeterSpacing=2;" vertex="1" parent="EXGlup8Ojjp6KNx8XwXa-1">
          <mxGeometry x="340" y="350" width="150" height="60" as="geometry" />
        </mxCell>
        <mxCell id="EXGlup8Ojjp6KNx8XwXa-20" value="Operational Security" style="rounded=1;whiteSpace=wrap;html=1;shadow=0;labelBackgroundColor=none;strokeWidth=3;fontFamily=Helvetica;fontSize=16;align=center;spacing=5;fontStyle=1;arcSize=7;perimeterSpacing=2;fillColor=#f5f5f5;strokeColor=#666666;fontColor=#333333;" vertex="1" parent="EXGlup8Ojjp6KNx8XwXa-1">
          <mxGeometry x="701" y="150.9999999999999" width="150" height="60" as="geometry" />
        </mxCell>
        <mxCell id="EXGlup8Ojjp6KNx8XwXa-21" value="Centralization" style="rounded=1;whiteSpace=wrap;html=1;shadow=0;labelBackgroundColor=none;strokeWidth=3;fontFamily=Helvetica;fontSize=16;align=center;spacing=5;fontStyle=0;arcSize=7;perimeterSpacing=2;" vertex="1" parent="EXGlup8Ojjp6KNx8XwXa-1">
          <mxGeometry x="890" y="190" width="150" height="60" as="geometry" />
        </mxCell>
        <mxCell id="EXGlup8Ojjp6KNx8XwXa-22" value="" style="edgeStyle=none;rounded=1;jumpStyle=none;html=1;shadow=0;labelBackgroundColor=none;startArrow=none;startFill=0;jettySize=auto;orthogonalLoop=1;strokeWidth=3;fontFamily=Helvetica;fontSize=16;fontColor=#FFFFFF;spacing=5;fontStyle=1;" edge="1" parent="EXGlup8Ojjp6KNx8XwXa-1" source="EXGlup8Ojjp6KNx8XwXa-20" target="EXGlup8Ojjp6KNx8XwXa-21">
          <mxGeometry relative="1" as="geometry" />
        </mxCell>
        <mxCell id="EXGlup8Ojjp6KNx8XwXa-23" value="Governance attacks" style="rounded=1;whiteSpace=wrap;html=1;shadow=0;labelBackgroundColor=none;strokeWidth=3;fontFamily=Helvetica;fontSize=16;align=center;spacing=5;fontStyle=0;arcSize=7;perimeterSpacing=2;" vertex="1" parent="EXGlup8Ojjp6KNx8XwXa-1">
          <mxGeometry x="890" y="120" width="150" height="60" as="geometry" />
        </mxCell>
        <mxCell id="EXGlup8Ojjp6KNx8XwXa-24" value="" style="edgeStyle=none;rounded=1;jumpStyle=none;html=1;shadow=0;labelBackgroundColor=none;startArrow=none;startFill=0;jettySize=auto;orthogonalLoop=1;strokeWidth=3;fontFamily=Helvetica;fontSize=16;fontColor=#FFFFFF;spacing=5;fontStyle=1;" edge="1" parent="EXGlup8Ojjp6KNx8XwXa-1" source="EXGlup8Ojjp6KNx8XwXa-20" target="EXGlup8Ojjp6KNx8XwXa-23">
          <mxGeometry relative="1" as="geometry" />
        </mxCell>
      </root>
    </mxGraphModel>
  </diagram>
</mxfile>
